<svg xmlns="http://www.w3.org/2000/svg" width="212" height="30" viewBox="0 0 212 30" role="img" aria-label="Venezuela Rank 546"><title>Venezuela Rank 546</title><defs><linearGradient id="badge-background" x1="0" y1="0" x2="100%" y2="100%"><stop offset="0" stop-color="#c71329"/><stop offset="1" stop-color="#d13a21"/></linearGradient></defs><rect width="212" height="30" rx="5" fill="url(#badge-background)"/><rect x=".5" y=".5" width="211" height="29" rx="4.5" fill="none" stroke="#ffcc00" stroke-opacity=".55"/><svg x="8" y="6" width="24" height="18" aria-hidden="true" xmlns="http://www.w3.org/2000/svg" xmlns:xlink="http://www.w3.org/1999/xlink" id="flag-icons-ve" viewBox="0 0 640 480"><defs><g id="ve-d" transform="translate(0 -36)"><g id="ve-c"><g id="ve-b"><path id="ve-a" fill="#fff" d="M0-5-1.5-.2l2.8.9z"/><use xlink:href="#ve-a" width="180" height="120" transform="scale(-1 1)"/></g><use xlink:href="#ve-b" width="180" height="120" transform="rotate(72)"/></g><use xlink:href="#ve-b" width="180" height="120" transform="rotate(-72)"/><use xlink:href="#ve-c" width="180" height="120" transform="rotate(144)"/></g></defs><path fill="#cf142b" d="M0 0h640v480H0z"/><path fill="#00247d" d="M0 0h640v320H0z"/><path fill="#fc0" d="M0 0h640v160H0z"/><g id="ve-f" transform="matrix(4 0 0 4 320 336)"><g id="ve-e"><use xlink:href="#ve-d" width="180" height="120" transform="rotate(10)"/><use xlink:href="#ve-d" width="180" height="120" transform="rotate(30)"/></g><use xlink:href="#ve-e" width="180" height="120" transform="rotate(40)"/></g><use xlink:href="#ve-f" width="180" height="120" transform="rotate(-80 320 336)"/></svg><text x="126" y="20" text-anchor="middle" fill="#ffffff" font-family="Verdana,DejaVu Sans,sans-serif" font-size="12">Venezuela Rank 546</text></svg>
