<svg xmlns="http://www.w3.org/2000/svg" width="252" height="30" viewBox="0 0 252 30" role="img" aria-label="United Kingdom Rank 483"><title>United Kingdom Rank 483</title><defs><linearGradient id="badge-background" x1="0" y1="0" x2="100%" y2="100%"><stop offset="0" stop-color="#c8102e"/><stop offset="1" stop-color="#9c143b"/></linearGradient></defs><rect width="252" height="30" rx="5" fill="url(#badge-background)"/><rect x=".5" y=".5" width="251" height="29" rx="4.5" fill="none" stroke="#012169" stroke-opacity=".55"/><svg x="8" y="6" width="24" height="18" aria-hidden="true" xmlns="http://www.w3.org/2000/svg" id="flag-icons-gb" viewBox="0 0 640 480"><path fill="#012169" d="M0 0h640v480H0z"/><path fill="#FFF" d="m75 0 244 181L562 0h78v62L400 241l240 178v61h-80L320 301 81 480H0v-60l239-178L0 64V0z"/><path fill="#C8102E" d="m424 281 216 159v40L369 281zm-184 20 6 35L54 480H0zM640 0v3L391 191l2-44L590 0zM0 0l239 176h-60L0 42z"/><path fill="#FFF" d="M241 0v480h160V0zM0 160v160h640V160z"/><path fill="#C8102E" d="M0 193v96h640v-96zM273 0v480h96V0z"/></svg><text x="146" y="20" text-anchor="middle" fill="#ffffff" font-family="Verdana,DejaVu Sans,sans-serif" font-size="12">United Kingdom Rank 483</text></svg>
